<svg xmlns="http://www.w3.org/2000/svg" xmlns:xlink="http://www.w3.org/1999/xlink" width="150" zoomAndPan="magnify" viewBox="0 0 112.5 44.999999" height="60" preserveAspectRatio="xMidYMid meet" version="1.0"><defs><g><g id="id1"/><g id="id2"/></g><clipPath id="id3"><path d="M 0 0.0976562 L 112.003906 0.0976562 L 112.003906 44.898438 L 0 44.898438 Z M 0 0.0976562 " clip-rule="nonzero"/></clipPath><clipPath id="id4"><path d="M 1.324219 0.121094 L 41.46875 0.121094 L 41.46875 44.898438 L 1.324219 44.898438 Z M 1.324219 0.121094 " clip-rule="nonzero"/></clipPath><clipPath id="id5"><path d="M 86.542969 17.796875 L 97.324219 17.796875 L 97.324219 28.636719 L 86.542969 28.636719 Z M 86.542969 17.796875 " clip-rule="nonzero"/></clipPath></defs><g clip-path="url(#id3)"><path fill="rgb(100%, 100%, 100%)" d="M 0 0.0976562 L 112.5 0.0976562 L 112.5 52.597656 L 0 52.597656 Z M 0 0.0976562 " fill-opacity="1" fill-rule="nonzero"/><path fill="rgb(100%, 100%, 100%)" d="M 0 0.0976562 L 112.5 0.0976562 L 112.5 45.097656 L 0 45.097656 Z M 0 0.0976562 " fill-opacity="1" fill-rule="nonzero"/><path fill="rgb(100%, 100%, 100%)" d="M 0 0.0976562 L 112.5 0.0976562 L 112.5 45.097656 L 0 45.097656 Z M 0 0.0976562 " fill-opacity="1" fill-rule="nonzero"/><path fill="rgb(100%, 100%, 100%)" d="M 0 0.0976562 L 112.5 0.0976562 L 112.5 45.097656 L 0 45.097656 Z M 0 0.0976562 " fill-opacity="1" fill-rule="nonzero"/></g><path fill="rgb(45.098877%, 86.669922%, 89.408875%)" d="M 24.484375 29.28125 C 24.484375 29.28125 24.550781 29.238281 24.691406 29.167969 C 24.835938 29.101562 25.050781 29.003906 25.351562 28.9375 C 25.648438 28.875 26.039062 28.835938 26.484375 28.945312 C 26.707031 29.003906 26.9375 29.097656 27.160156 29.242188 C 27.382812 29.382812 27.59375 29.574219 27.785156 29.796875 C 27.976562 30.023438 28.144531 30.285156 28.296875 30.566406 C 28.453125 30.847656 28.589844 31.148438 28.730469 31.464844 C 29.003906 32.097656 29.253906 32.796875 29.519531 33.539062 C 29.785156 34.285156 30.046875 35.078125 30.347656 35.90625 C 30.644531 36.726562 30.964844 37.59375 31.382812 38.433594 C 31.589844 38.851562 31.820312 39.265625 32.101562 39.628906 C 32.238281 39.804688 32.390625 39.96875 32.550781 40.09375 C 32.589844 40.125 32.632812 40.152344 32.671875 40.179688 C 32.714844 40.203125 32.753906 40.230469 32.796875 40.246094 C 32.875 40.289062 32.957031 40.3125 33.035156 40.324219 C 33.117188 40.339844 33.195312 40.335938 33.277344 40.324219 C 33.359375 40.316406 33.445312 40.285156 33.53125 40.25 C 33.707031 40.175781 33.894531 40.050781 34.0625 39.898438 L 34.082031 39.882812 C 34.085938 39.875 34.089844 39.875 34.09375 39.867188 L 34.117188 39.84375 C 34.128906 39.828125 34.144531 39.816406 34.160156 39.796875 C 34.195312 39.753906 34.230469 39.71875 34.261719 39.671875 L 34.308594 39.609375 L 34.355469 39.539062 C 34.386719 39.492188 34.414062 39.441406 34.441406 39.390625 C 34.554688 39.1875 34.648438 38.960938 34.726562 38.71875 C 34.890625 38.238281 35.003906 37.707031 35.105469 37.160156 C 35.203125 36.613281 35.289062 36.046875 35.378906 35.46875 C 35.558594 34.3125 35.761719 33.109375 36.128906 31.898438 C 36.316406 31.292969 36.542969 30.683594 36.84375 30.09375 C 37.140625 29.503906 37.515625 28.933594 37.964844 28.417969 C 38.417969 27.898438 38.957031 27.445312 39.546875 27.074219 C 39.84375 26.890625 40.152344 26.730469 40.46875 26.589844 L 40.707031 26.488281 C 40.789062 26.457031 40.871094 26.425781 40.949219 26.398438 L 41.070312 26.351562 L 41.207031 26.308594 L 41.660156 26.164062 C 41.742188 26.144531 41.832031 26.121094 41.914062 26.101562 L 42.171875 26.035156 C 42.257812 26.015625 42.34375 25.992188 42.425781 25.980469 C 42.59375 25.949219 42.761719 25.917969 42.929688 25.886719 C 43.097656 25.859375 43.265625 25.839844 43.433594 25.820312 C 44.109375 25.742188 44.789062 25.714844 45.460938 25.738281 C 46.132812 25.761719 46.800781 25.824219 47.460938 25.917969 C 48.121094 26.011719 48.773438 26.136719 49.417969 26.273438 C 50.0625 26.414062 50.699219 26.578125 51.328125 26.742188 C 51.953125 26.90625 52.574219 27.074219 53.199219 27.238281 C 54.441406 27.570312 55.675781 27.90625 56.898438 28.21875 C 57.511719 28.375 58.121094 28.527344 58.730469 28.671875 C 59.035156 28.742188 59.339844 28.816406 59.640625 28.882812 C 59.945312 28.949219 60.246094 29.015625 60.546875 29.082031 C 61.753906 29.335938 62.949219 29.550781 64.128906 29.71875 C 66.488281 30.039062 68.808594 30.152344 71 30.128906 C 73.195312 30.105469 75.269531 29.929688 77.167969 29.644531 C 78.113281 29.503906 79.019531 29.332031 79.871094 29.144531 C 80.726562 28.957031 81.53125 28.75 82.28125 28.527344 C 83.78125 28.085938 85.0625 27.613281 86.09375 27.164062 C 87.125 26.714844 87.917969 26.316406 88.449219 26.027344 C 88.582031 25.957031 88.699219 25.890625 88.800781 25.832031 C 88.902344 25.777344 88.984375 25.730469 89.054688 25.691406 C 89.191406 25.613281 89.261719 25.574219 89.261719 25.574219 C 89.261719 25.574219 89.195312 25.621094 89.066406 25.710938 C 89 25.753906 88.921875 25.808594 88.824219 25.875 C 88.730469 25.941406 88.621094 26.015625 88.492188 26.097656 C 88.363281 26.179688 88.222656 26.269531 88.0625 26.371094 C 87.90625 26.472656 87.730469 26.574219 87.542969 26.6875 C 87.164062 26.914062 86.722656 27.164062 86.21875 27.425781 C 85.210938 27.949219 83.949219 28.523438 82.453125 29.058594 C 80.960938 29.59375 79.230469 30.085938 77.308594 30.46875 C 76.347656 30.660156 75.339844 30.820312 74.292969 30.945312 C 73.246094 31.074219 72.15625 31.164062 71.035156 31.21875 C 68.789062 31.316406 66.417969 31.273438 63.96875 30.988281 C 62.746094 30.851562 61.515625 30.648438 60.277344 30.40625 C 59.96875 30.347656 59.660156 30.28125 59.351562 30.21875 C 59.039062 30.15625 58.730469 30.085938 58.421875 30.019531 C 57.800781 29.878906 57.179688 29.730469 56.558594 29.582031 C 55.316406 29.273438 54.074219 28.953125 52.832031 28.625 C 52.210938 28.460938 51.585938 28.296875 50.964844 28.132812 C 50.34375 27.972656 49.726562 27.820312 49.109375 27.6875 C 48.492188 27.550781 47.875 27.429688 47.257812 27.339844 C 46.640625 27.253906 46.023438 27.195312 45.410156 27.167969 L 44.953125 27.160156 C 44.800781 27.15625 44.648438 27.167969 44.496094 27.167969 C 44.421875 27.171875 44.34375 27.167969 44.269531 27.175781 L 44.042969 27.191406 C 43.894531 27.203125 43.742188 27.207031 43.59375 27.230469 C 43.445312 27.246094 43.292969 27.261719 43.148438 27.285156 C 43 27.308594 42.851562 27.335938 42.707031 27.359375 C 42.632812 27.371094 42.5625 27.390625 42.492188 27.40625 L 42.285156 27.457031 C 42.214844 27.472656 42.148438 27.484375 42.078125 27.503906 L 41.847656 27.574219 L 41.621094 27.644531 L 41.535156 27.667969 C 41.535156 27.667969 41.496094 27.683594 41.527344 27.671875 L 41.425781 27.707031 C 41.359375 27.734375 41.289062 27.757812 41.222656 27.785156 L 41.023438 27.863281 C 40.761719 27.980469 40.507812 28.109375 40.265625 28.25 C 39.785156 28.542969 39.347656 28.898438 38.972656 29.3125 C 38.597656 29.730469 38.277344 30.195312 38.011719 30.699219 C 37.746094 31.203125 37.527344 31.734375 37.347656 32.285156 C 36.984375 33.382812 36.765625 34.53125 36.550781 35.667969 C 36.445312 36.242188 36.34375 36.8125 36.222656 37.382812 C 36.097656 37.953125 35.960938 38.523438 35.75 39.085938 C 35.640625 39.367188 35.519531 39.648438 35.355469 39.917969 C 35.3125 39.988281 35.273438 40.054688 35.222656 40.121094 L 35.15625 40.21875 L 35.078125 40.316406 C 35.03125 40.378906 34.972656 40.441406 34.917969 40.5 C 34.886719 40.53125 34.851562 40.566406 34.820312 40.597656 L 34.769531 40.644531 L 34.742188 40.667969 L 34.722656 40.683594 C 34.484375 40.878906 34.21875 41.054688 33.902344 41.175781 C 33.585938 41.300781 33.203125 41.351562 32.847656 41.269531 C 32.671875 41.234375 32.503906 41.171875 32.359375 41.089844 C 32.28125 41.050781 32.214844 41.003906 32.148438 40.960938 C 32.085938 40.910156 32.015625 40.863281 31.960938 40.8125 C 31.726562 40.609375 31.539062 40.386719 31.378906 40.164062 C 31.058594 39.710938 30.828125 39.246094 30.625 38.785156 C 30.425781 38.328125 30.257812 37.875 30.105469 37.429688 C 29.949219 36.984375 29.8125 36.546875 29.683594 36.121094 C 29.429688 35.269531 29.207031 34.464844 28.992188 33.707031 C 28.773438 32.953125 28.5625 32.253906 28.339844 31.617188 C 28.117188 30.984375 27.882812 30.410156 27.5625 29.976562 C 27.242188 29.539062 26.835938 29.246094 26.4375 29.113281 C 26.035156 28.976562 25.660156 28.980469 25.363281 29.019531 C 25.070312 29.058594 24.847656 29.132812 24.703125 29.1875 C 24.554688 29.242188 24.484375 29.28125 24.484375 29.28125 " fill-opacity="1" fill-rule="nonzero"/><g clip-path="url(#id4)"><path fill="rgb(45.098877%, 86.669922%, 89.408875%)" d="M 40.660156 13.679688 C 40.660156 13.679688 40.675781 13.570312 40.703125 13.355469 C 40.726562 13.140625 40.765625 12.820312 40.808594 12.402344 C 40.847656 11.988281 40.890625 11.472656 40.917969 10.871094 C 40.945312 10.269531 40.960938 9.574219 40.914062 8.808594 C 40.890625 8.425781 40.847656 8.023438 40.78125 7.609375 C 40.714844 7.199219 40.617188 6.773438 40.472656 6.355469 C 40.324219 5.941406 40.125 5.53125 39.847656 5.183594 C 39.570312 4.839844 39.214844 4.570312 38.789062 4.421875 C 38.363281 4.273438 37.875 4.238281 37.359375 4.292969 C 36.847656 4.351562 36.3125 4.492188 35.773438 4.691406 C 35.230469 4.890625 34.6875 5.132812 34.140625 5.421875 C 33.863281 5.5625 33.589844 5.714844 33.316406 5.875 C 33.050781 6.03125 32.75 6.214844 32.429688 6.382812 C 31.796875 6.71875 31.113281 7 30.382812 7.207031 C 29.65625 7.414062 28.882812 7.542969 28.089844 7.570312 C 27.300781 7.601562 26.496094 7.527344 25.703125 7.378906 C 24.914062 7.226562 24.136719 7 23.378906 6.726562 C 22.621094 6.457031 21.878906 6.132812 21.148438 5.792969 C 20.421875 5.457031 19.699219 5.097656 18.980469 4.75 C 18.261719 4.398438 17.539062 4.054688 16.8125 3.738281 C 16.085938 3.425781 15.351562 3.144531 14.609375 2.929688 C 13.125 2.496094 11.601562 2.339844 10.113281 2.621094 C 9.742188 2.691406 9.375 2.785156 9.007812 2.902344 C 8.917969 2.933594 8.824219 2.960938 8.734375 2.996094 L 8.667969 3.019531 C 8.636719 3.03125 8.671875 3.015625 8.65625 3.023438 L 8.617188 3.039062 L 8.464844 3.097656 C 8.417969 3.117188 8.359375 3.136719 8.316406 3.15625 L 8.199219 3.210938 L 8.082031 3.261719 C 8.042969 3.28125 8 3.300781 7.960938 3.320312 C 7.292969 3.644531 6.691406 4.070312 6.179688 4.59375 C 5.667969 5.121094 5.242188 5.738281 4.914062 6.425781 C 4.582031 7.113281 4.339844 7.867188 4.175781 8.652344 C 4.011719 9.4375 3.921875 10.253906 3.894531 11.085938 C 3.878906 11.5 3.878906 11.917969 3.890625 12.335938 C 3.90625 12.753906 3.933594 13.175781 3.96875 13.597656 C 4.121094 15.28125 4.457031 16.96875 4.902344 18.625 C 5.128906 19.453125 5.386719 20.269531 5.664062 21.078125 C 5.949219 21.890625 6.253906 22.6875 6.585938 23.472656 C 6.667969 23.667969 6.753906 23.863281 6.839844 24.058594 C 6.925781 24.257812 7.015625 24.460938 7.101562 24.660156 C 7.28125 25.058594 7.457031 25.453125 7.632812 25.851562 C 7.984375 26.644531 8.339844 27.433594 8.6875 28.21875 C 9.390625 29.789062 10.105469 31.335938 10.757812 32.910156 C 10.921875 33.304688 11.082031 33.699219 11.234375 34.097656 C 11.386719 34.5 11.535156 34.902344 11.671875 35.304688 C 11.808594 35.710938 11.9375 36.117188 12.050781 36.527344 C 12.164062 36.9375 12.273438 37.34375 12.367188 37.753906 C 12.554688 38.570312 12.699219 39.378906 12.828125 40.171875 C 12.859375 40.371094 12.886719 40.566406 12.917969 40.765625 C 12.925781 40.816406 12.949219 40.964844 12.960938 41.019531 L 12.980469 41.121094 L 13.007812 41.238281 C 13.085938 41.542969 13.191406 41.832031 13.332031 42.089844 C 13.605469 42.609375 14.011719 43.003906 14.464844 43.175781 C 14.914062 43.359375 15.421875 43.324219 15.921875 43.105469 C 16.171875 42.996094 16.417969 42.84375 16.648438 42.65625 C 16.878906 42.46875 17.09375 42.253906 17.292969 42.023438 C 17.695312 41.554688 18.03125 41.015625 18.324219 40.464844 C 18.613281 39.90625 18.859375 39.328125 19.066406 38.75 C 19.273438 38.167969 19.449219 37.585938 19.597656 37.011719 C 19.671875 36.71875 19.746094 36.429688 19.816406 36.144531 C 19.855469 35.996094 19.890625 35.847656 19.929688 35.703125 C 19.96875 35.558594 20.007812 35.417969 20.042969 35.277344 C 20.199219 34.710938 20.367188 34.164062 20.546875 33.636719 C 20.730469 33.113281 20.917969 32.609375 21.128906 32.128906 C 21.335938 31.648438 21.558594 31.195312 21.800781 30.773438 C 21.921875 30.5625 22.046875 30.359375 22.179688 30.164062 C 22.308594 29.96875 22.445312 29.78125 22.589844 29.605469 C 22.871094 29.253906 23.183594 28.945312 23.511719 28.695312 C 23.84375 28.441406 24.195312 28.253906 24.546875 28.128906 C 24.894531 28.007812 25.242188 27.957031 25.558594 27.945312 C 26.195312 27.929688 26.714844 28.070312 27.113281 28.203125 C 27.515625 28.339844 27.808594 28.480469 28.003906 28.574219 C 28.195312 28.671875 28.296875 28.722656 28.296875 28.722656 C 28.296875 28.722656 28.191406 28.683594 27.988281 28.613281 C 27.78125 28.542969 27.476562 28.4375 27.074219 28.347656 C 26.871094 28.304688 26.644531 28.265625 26.394531 28.242188 C 26.144531 28.222656 25.871094 28.21875 25.582031 28.257812 C 25.296875 28.296875 24.992188 28.375 24.699219 28.511719 C 24.402344 28.648438 24.113281 28.84375 23.84375 29.089844 C 23.300781 29.589844 22.84375 30.292969 22.460938 31.117188 C 22.078125 31.945312 21.761719 32.890625 21.496094 33.921875 C 21.363281 34.441406 21.242188 34.976562 21.128906 35.535156 C 21.101562 35.675781 21.074219 35.816406 21.042969 35.957031 C 21.019531 36.097656 20.992188 36.242188 20.964844 36.382812 C 20.914062 36.679688 20.863281 36.980469 20.808594 37.28125 C 20.695312 37.898438 20.546875 38.527344 20.363281 39.167969 C 20.179688 39.808594 19.949219 40.457031 19.660156 41.109375 C 19.371094 41.757812 19.011719 42.410156 18.539062 43.027344 C 18.300781 43.335938 18.035156 43.636719 17.726562 43.914062 C 17.421875 44.191406 17.070312 44.445312 16.667969 44.652344 C 16.269531 44.855469 15.816406 45.007812 15.328125 45.058594 C 15.085938 45.082031 14.839844 45.085938 14.589844 45.058594 C 14.339844 45.03125 14.09375 44.976562 13.855469 44.898438 C 13.378906 44.738281 12.941406 44.480469 12.574219 44.15625 C 12.390625 43.996094 12.21875 43.820312 12.066406 43.632812 C 11.914062 43.449219 11.777344 43.25 11.65625 43.046875 C 11.414062 42.640625 11.230469 42.207031 11.101562 41.761719 L 11.054688 41.59375 L 11.011719 41.414062 C 10.976562 41.277344 10.972656 41.230469 10.941406 41.09375 C 10.90625 40.902344 10.871094 40.714844 10.835938 40.523438 C 10.683594 39.769531 10.515625 39.011719 10.3125 38.265625 C 10.109375 37.519531 9.871094 36.78125 9.597656 36.039062 C 9.460938 35.671875 9.3125 35.300781 9.160156 34.929688 C 9.003906 34.558594 8.839844 34.183594 8.671875 33.8125 C 8.335938 33.0625 7.976562 32.308594 7.613281 31.539062 C 7.25 30.773438 6.882812 30 6.515625 29.222656 C 6.144531 28.441406 5.773438 27.65625 5.402344 26.867188 C 5.21875 26.46875 5.035156 26.070312 4.851562 25.671875 C 4.757812 25.472656 4.667969 25.273438 4.574219 25.074219 C 4.480469 24.867188 4.386719 24.664062 4.296875 24.457031 C 3.574219 22.796875 2.945312 21.074219 2.453125 19.300781 C 1.957031 17.527344 1.589844 15.699219 1.417969 13.824219 C 1.378906 13.359375 1.347656 12.886719 1.332031 12.414062 C 1.320312 11.941406 1.320312 11.464844 1.339844 10.988281 C 1.371094 10.035156 1.484375 9.074219 1.6875 8.121094 C 1.792969 7.644531 1.917969 7.167969 2.078125 6.699219 C 2.238281 6.230469 2.425781 5.765625 2.652344 5.316406 C 3.097656 4.417969 3.6875 3.5625 4.417969 2.839844 C 5.144531 2.117188 6.003906 1.53125 6.910156 1.113281 C 6.96875 1.085938 7.023438 1.058594 7.082031 1.03125 L 7.265625 0.957031 L 7.449219 0.878906 C 7.507812 0.859375 7.550781 0.84375 7.605469 0.824219 L 7.757812 0.765625 L 7.796875 0.753906 C 7.804688 0.75 7.867188 0.726562 7.859375 0.730469 L 7.945312 0.699219 C 8.0625 0.664062 8.175781 0.628906 8.292969 0.589844 C 8.753906 0.453125 9.226562 0.34375 9.703125 0.265625 C 10.660156 0.105469 11.632812 0.0820312 12.574219 0.179688 C 13.515625 0.269531 14.421875 0.488281 15.277344 0.761719 C 16.132812 1.039062 16.941406 1.378906 17.714844 1.738281 C 18.488281 2.097656 19.222656 2.484375 19.9375 2.867188 C 20.65625 3.25 21.347656 3.625 22.035156 3.976562 C 22.722656 4.328125 23.398438 4.648438 24.070312 4.929688 C 24.746094 5.207031 25.414062 5.4375 26.082031 5.59375 C 26.75 5.753906 27.414062 5.839844 28.070312 5.855469 C 28.722656 5.867188 29.363281 5.796875 29.984375 5.65625 C 30.605469 5.515625 31.203125 5.304688 31.773438 5.046875 C 32.054688 4.921875 32.328125 4.777344 32.640625 4.621094 C 32.941406 4.46875 33.242188 4.324219 33.546875 4.191406 C 34.15625 3.921875 34.769531 3.683594 35.390625 3.507812 C 36.011719 3.332031 36.644531 3.207031 37.285156 3.179688 C 37.601562 3.167969 37.925781 3.183594 38.242188 3.234375 C 38.558594 3.28125 38.871094 3.371094 39.164062 3.503906 C 39.453125 3.632812 39.722656 3.804688 39.957031 4.003906 C 40.191406 4.207031 40.386719 4.433594 40.546875 4.671875 C 40.871094 5.148438 41.058594 5.65625 41.1875 6.140625 C 41.308594 6.625 41.371094 7.09375 41.40625 7.535156 C 41.441406 7.980469 41.441406 8.402344 41.429688 8.800781 C 41.402344 9.597656 41.320312 10.296875 41.230469 10.902344 C 41.140625 11.507812 41.039062 12.015625 40.953125 12.425781 C 40.867188 12.839844 40.792969 13.152344 40.738281 13.359375 C 40.6875 13.570312 40.660156 13.679688 40.660156 13.679688 " fill-opacity="1" fill-rule="nonzero"/></g><path fill="rgb(45.098877%, 86.669922%, 89.408875%)" d="M 14.316406 9.09375 C 14.316406 9.09375 14.621094 9.082031 15.148438 9.046875 C 15.675781 9.011719 16.429688 8.957031 17.332031 8.863281 C 17.78125 8.816406 18.269531 8.761719 18.78125 8.695312 C 19.296875 8.628906 19.839844 8.554688 20.398438 8.46875 C 20.957031 8.378906 21.53125 8.285156 22.113281 8.175781 C 22.695312 8.070312 23.285156 7.949219 23.871094 7.820312 C 24.164062 7.753906 24.457031 7.683594 24.75 7.617188 C 25.039062 7.542969 25.328125 7.476562 25.613281 7.398438 C 26.183594 7.246094 26.742188 7.089844 27.273438 6.925781 C 27.542969 6.839844 27.804688 6.761719 28.058594 6.671875 C 28.3125 6.582031 28.5625 6.5 28.800781 6.410156 C 29.28125 6.238281 29.730469 6.058594 30.136719 5.886719 C 30.339844 5.796875 30.535156 5.714844 30.71875 5.632812 C 30.902344 5.546875 31.074219 5.464844 31.234375 5.386719 C 31.316406 5.351562 31.394531 5.3125 31.46875 5.277344 C 31.542969 5.238281 31.617188 5.199219 31.683594 5.164062 C 31.820312 5.09375 31.945312 5.027344 32.058594 4.96875 C 32.285156 4.847656 32.457031 4.742188 32.574219 4.675781 C 32.691406 4.609375 32.757812 4.574219 32.757812 4.574219 L 33.453125 5.839844 C 33.453125 5.839844 33.378906 5.875 33.246094 5.9375 C 33.113281 6 32.921875 6.097656 32.671875 6.210938 C 32.546875 6.261719 32.40625 6.324219 32.253906 6.386719 C 32.179688 6.421875 32.101562 6.453125 32.019531 6.488281 C 31.9375 6.523438 31.851562 6.554688 31.761719 6.589844 C 31.585938 6.660156 31.398438 6.730469 31.199219 6.808594 C 31 6.878906 30.789062 6.949219 30.570312 7.027344 C 30.128906 7.175781 29.652344 7.328125 29.140625 7.46875 C 28.886719 7.542969 28.625 7.609375 28.355469 7.679688 C 28.089844 7.75 27.8125 7.8125 27.53125 7.878906 C 26.972656 8.007812 26.390625 8.125 25.800781 8.238281 C 25.503906 8.292969 25.203125 8.339844 24.90625 8.390625 C 24.605469 8.4375 24.304688 8.488281 24.003906 8.53125 C 23.398438 8.617188 22.792969 8.695312 22.199219 8.757812 C 21.605469 8.824219 21.019531 8.875 20.449219 8.921875 C 19.882812 8.964844 19.332031 9 18.8125 9.027344 C 18.292969 9.054688 17.800781 9.074219 17.34375 9.085938 C 16.4375 9.113281 15.679688 9.113281 15.148438 9.109375 C 14.621094 9.105469 14.316406 9.09375 14.316406 9.09375 " fill-opacity="1" fill-rule="nonzero"/><g clip-path="url(#id5)"><path fill="rgb(15.289307%, 66.668701%, 88.238525%)" d="M 97.324219 23.199219 C 92.511719 23.511719 92.261719 23.761719 91.949219 28.574219 C 91.636719 23.761719 91.382812 23.511719 86.574219 23.199219 C 91.382812 22.886719 91.636719 22.636719 91.949219 17.824219 C 92.261719 22.636719 92.511719 22.886719 97.324219 23.199219 " fill-opacity="1" fill-rule="nonzero"/></g><path fill="rgb(15.289307%, 66.668701%, 88.238525%)" d="M 90.457031 27.976562 C 89.546875 28.035156 89.5 28.082031 89.441406 28.988281 C 89.382812 28.082031 89.335938 28.035156 88.425781 27.976562 C 89.335938 27.917969 89.382812 27.871094 89.441406 26.960938 C 89.5 27.871094 89.546875 27.917969 90.457031 27.976562 " fill-opacity="1" fill-rule="nonzero"/><path fill="rgb(15.289307%, 66.668701%, 88.238525%)" d="M 85.109375 24.605469 C 82.695312 24.761719 82.566406 24.886719 82.410156 27.304688 C 82.253906 24.886719 82.125 24.761719 79.710938 24.605469 C 82.125 24.449219 82.253906 24.320312 82.410156 21.902344 C 82.566406 24.320312 82.695312 24.449219 85.109375 24.605469 " fill-opacity="1" fill-rule="nonzero"/><g fill="rgb(50.19989%, 50.19989%, 50.19989%)" fill-opacity="1"><g transform="translate(10.757841, 20.622246)"><g><path d="M 0.609375 -6.109375 L 3.234375 -6.109375 C 4.191406 -6.109375 4.972656 -5.820312 5.578125 -5.25 C 6.179688 -4.6875 6.484375 -3.953125 6.484375 -3.046875 C 6.484375 -2.148438 6.175781 -1.414062 5.5625 -0.84375 C 4.945312 -0.28125 4.148438 0 3.171875 0 L 0.609375 0 Z M 2.15625 -4.859375 L 2.15625 -1.234375 L 3.265625 -1.234375 C 3.742188 -1.234375 4.132812 -1.398438 4.4375 -1.734375 C 4.75 -2.066406 4.90625 -2.5 4.90625 -3.03125 C 4.90625 -3.570312 4.742188 -4.007812 4.421875 -4.34375 C 4.097656 -4.6875 3.691406 -4.859375 3.203125 -4.859375 Z M 2.15625 -4.859375 "/></g></g></g><g fill="rgb(50.19989%, 50.19989%, 50.19989%)" fill-opacity="1"><g transform="translate(18.293084, 20.622246)"><g><path d="M 5.390625 -4.875 L 2.15625 -4.875 L 2.15625 -3.671875 L 5.078125 -3.671875 L 5.078125 -2.453125 L 2.15625 -2.453125 L 2.15625 -1.21875 L 5.484375 -1.21875 L 5.484375 0 L 0.609375 0 L 0.609375 -6.109375 L 5.390625 -6.109375 Z M 5.390625 -4.875 "/></g></g></g><g fill="rgb(50.19989%, 50.19989%, 50.19989%)" fill-opacity="1"><g transform="translate(25.01822, 20.622246)"><g><path d="M 6.25 0 L 4.875 0 L 2.0625 -3.75 L 2.0625 0 L 0.609375 0 L 0.609375 -6.109375 L 1.984375 -6.109375 L 4.796875 -2.34375 L 4.796875 -6.109375 L 6.25 -6.109375 Z M 6.25 0 "/></g></g></g><g fill="rgb(50.19989%, 50.19989%, 50.19989%)" fill-opacity="1"><g transform="translate(32.718972, 20.622246)"><g><path d="M 5.28125 -4.859375 L 3.4375 -4.859375 L 3.4375 0 L 1.890625 0 L 1.890625 -4.859375 L 0.0625 -4.859375 L 0.0625 -6.109375 L 5.28125 -6.109375 Z M 5.28125 -4.859375 "/></g></g></g><g fill="rgb(50.19989%, 50.19989%, 50.19989%)" fill-opacity="1"><g transform="translate(38.895328, 20.622246)"><g><path d="M 4.671875 -1.125 L 2 -1.125 L 1.546875 0 L -0.046875 0 L 2.59375 -6.109375 L 4.1875 -6.109375 L 6.75 0 L 5.09375 0 Z M 4.21875 -2.296875 L 3.34375 -4.5625 L 2.453125 -2.296875 Z M 4.21875 -2.296875 "/></g></g></g><g fill="rgb(50.19989%, 50.19989%, 50.19989%)" fill-opacity="1"><g transform="translate(46.456706, 20.622246)"><g><path d="M 2.15625 -1.296875 L 4.75 -1.296875 L 4.75 0 L 0.609375 0 L 0.609375 -6.109375 L 2.15625 -6.109375 Z M 2.15625 -1.296875 "/></g></g></g><g fill="rgb(50.19989%, 50.19989%, 50.19989%)" fill-opacity="1"><g transform="translate(52.188809, 20.622246)"><g/></g></g><g fill="rgb(50.19989%, 50.19989%, 50.19989%)" fill-opacity="1"><g transform="translate(55.063752, 20.622246)"><g><path d="M 3.46875 -6.15625 C 3.925781 -6.15625 4.375 -6.0625 4.8125 -5.875 C 5.25 -5.6875 5.617188 -5.4375 5.921875 -5.125 L 5.03125 -4.0625 C 4.832031 -4.300781 4.59375 -4.492188 4.3125 -4.640625 C 4.039062 -4.785156 3.769531 -4.859375 3.5 -4.859375 C 3.007812 -4.859375 2.601562 -4.6875 2.28125 -4.34375 C 1.957031 -4.007812 1.796875 -3.59375 1.796875 -3.09375 C 1.796875 -2.570312 1.957031 -2.140625 2.28125 -1.796875 C 2.601562 -1.460938 3.007812 -1.296875 3.5 -1.296875 C 3.75 -1.296875 4.007812 -1.359375 4.28125 -1.484375 C 4.5625 -1.609375 4.8125 -1.78125 5.03125 -2 L 5.9375 -1.046875 C 5.601562 -0.710938 5.210938 -0.441406 4.765625 -0.234375 C 4.316406 -0.0351562 3.867188 0.0625 3.421875 0.0625 C 2.503906 0.0625 1.738281 -0.234375 1.125 -0.828125 C 0.507812 -1.421875 0.203125 -2.164062 0.203125 -3.0625 C 0.203125 -3.945312 0.515625 -4.679688 1.140625 -5.265625 C 1.765625 -5.859375 2.539062 -6.15625 3.46875 -6.15625 Z M 3.46875 -6.15625 "/></g></g></g><g fill="rgb(50.19989%, 50.19989%, 50.19989%)" fill-opacity="1"><g transform="translate(61.945686, 20.622246)"><g><path d="M 2.15625 -1.296875 L 4.75 -1.296875 L 4.75 0 L 0.609375 0 L 0.609375 -6.109375 L 2.15625 -6.109375 Z M 2.15625 -1.296875 "/></g></g></g><g fill="rgb(50.19989%, 50.19989%, 50.19989%)" fill-opacity="1"><g transform="translate(67.677789, 20.622246)"><g><path d="M 2.15625 0 L 0.609375 0 L 0.609375 -6.109375 L 2.15625 -6.109375 Z M 2.15625 0 "/></g></g></g><g fill="rgb(50.19989%, 50.19989%, 50.19989%)" fill-opacity="1"><g transform="translate(71.301866, 20.622246)"><g><path d="M 6.25 0 L 4.875 0 L 2.0625 -3.75 L 2.0625 0 L 0.609375 0 L 0.609375 -6.109375 L 1.984375 -6.109375 L 4.796875 -2.34375 L 4.796875 -6.109375 L 6.25 -6.109375 Z M 6.25 0 "/></g></g></g><g fill="rgb(50.19989%, 50.19989%, 50.19989%)" fill-opacity="1"><g transform="translate(79.00262, 20.622246)"><g><path d="M 2.15625 0 L 0.609375 0 L 0.609375 -6.109375 L 2.15625 -6.109375 Z M 2.15625 0 "/></g></g></g><g fill="rgb(50.19989%, 50.19989%, 50.19989%)" fill-opacity="1"><g transform="translate(82.626693, 20.622246)"><g><path d="M 3.46875 -6.15625 C 3.925781 -6.15625 4.375 -6.0625 4.8125 -5.875 C 5.25 -5.6875 5.617188 -5.4375 5.921875 -5.125 L 5.03125 -4.0625 C 4.832031 -4.300781 4.59375 -4.492188 4.3125 -4.640625 C 4.039062 -4.785156 3.769531 -4.859375 3.5 -4.859375 C 3.007812 -4.859375 2.601562 -4.6875 2.28125 -4.34375 C 1.957031 -4.007812 1.796875 -3.59375 1.796875 -3.09375 C 1.796875 -2.570312 1.957031 -2.140625 2.28125 -1.796875 C 2.601562 -1.460938 3.007812 -1.296875 3.5 -1.296875 C 3.75 -1.296875 4.007812 -1.359375 4.28125 -1.484375 C 4.5625 -1.609375 4.8125 -1.78125 5.03125 -2 L 5.9375 -1.046875 C 5.601562 -0.710938 5.210938 -0.441406 4.765625 -0.234375 C 4.316406 -0.0351562 3.867188 0.0625 3.421875 0.0625 C 2.503906 0.0625 1.738281 -0.234375 1.125 -0.828125 C 0.507812 -1.421875 0.203125 -2.164062 0.203125 -3.0625 C 0.203125 -3.945312 0.515625 -4.679688 1.140625 -5.265625 C 1.765625 -5.859375 2.539062 -6.15625 3.46875 -6.15625 Z M 3.46875 -6.15625 "/></g></g></g><path stroke-linecap="butt" transform="matrix(0.275714, 0, 0, 0.275714, -2.396283, 10.587133)" fill="none" stroke-linejoin="miter" d="M 48.530985 12.888341 L 58.037562 12.888341 C 61.508667 12.888341 64.342222 13.908421 66.524059 15.94858 C 68.691729 17.98874 69.782648 20.652282 69.782648 23.939205 C 69.782648 27.197794 68.677561 29.861335 66.467388 31.915663 C 64.257215 33.96999 61.381157 35.004238 57.810877 35.004238 L 48.530985 35.004238 Z M 54.155591 17.365358 L 54.155591 30.513053 L 58.165072 30.513053 C 59.89354 30.513053 61.310318 29.903839 62.415404 28.699578 C 63.520491 27.481149 64.073034 25.908526 64.073034 23.981709 C 64.073034 22.040723 63.492155 20.453933 62.330398 19.221336 C 61.16864 17.974572 59.695192 17.365358 57.910052 17.365358 Z M 93.173644 17.308687 L 81.48523 17.308687 L 81.48523 21.700697 L 92.040222 21.700697 L 92.040222 26.121043 L 81.48523 26.121043 L 81.48523 30.583892 L 93.513671 30.583892 L 93.513671 35.004238 L 75.860623 35.004238 L 75.860623 12.888341 L 93.173644 12.888341 Z M 120.659128 35.004238 L 115.700407 35.004238 L 105.527944 21.389006 L 105.527944 35.004238 L 100.243364 35.004238 L 100.243364 12.888341 L 105.202086 12.888341 L 115.417052 26.531908 L 115.417052 12.888341 L 120.659128 12.888341 Z M 145.084373 17.407861 L 138.411351 17.407861 L 138.411351 35.004238 L 132.786744 35.004238 L 132.786744 17.407861 L 126.184561 17.407861 L 126.184561 12.845837 L 145.084373 12.845837 Z M 165.273453 30.923919 L 155.596862 30.923919 L 153.995904 35.004238 L 148.215451 35.004238 L 157.750364 12.888341 L 163.530816 12.888341 L 172.853212 35.004238 L 166.846076 35.004238 Z M 163.629991 26.659418 L 160.470577 18.470444 L 157.240324 26.659418 Z M 183.634889 30.300536 L 193.013957 30.300536 L 193.013957 35.004238 L 178.010283 35.004238 L 178.010283 12.888341 L 183.634889 12.888341 Z M 219.578535 12.689992 C 221.221997 12.689992 222.851291 13.030018 224.438082 13.695904 C 226.024873 14.375957 227.370812 15.282695 228.490066 16.416117 L 225.231477 20.269752 C 224.523089 19.39135 223.658854 18.682961 222.66711 18.172921 C 221.661198 17.662881 220.669454 17.407861 219.67771 17.407861 C 217.935073 17.407861 216.475792 18.017075 215.285699 19.249672 C 214.109774 20.482268 213.514727 21.99822 213.514727 23.811695 C 213.514727 25.667674 214.109774 27.211961 215.285699 28.458726 C 216.475792 29.70549 217.935073 30.328872 219.67771 30.328872 C 220.612783 30.328872 221.576191 30.08802 222.567936 29.634651 C 223.573848 29.167114 224.466418 28.529565 225.231477 27.736169 L 228.518401 31.207274 C 227.328308 32.425703 225.911531 33.417447 224.268069 34.154171 C 222.638775 34.890896 221.023648 35.259258 219.394354 35.259258 C 216.064927 35.259258 213.288043 34.168339 211.07787 32.000669 C 208.867697 29.833 207.762611 27.126955 207.762611 23.868367 C 207.762611 20.694785 208.896033 18.031243 211.148709 15.891909 C 213.401385 13.752575 216.220772 12.689992 219.578535 12.689992 Z M 239.810118 30.300536 L 249.189185 30.300536 L 249.189185 35.004238 L 234.185511 35.004238 L 234.185511 12.888341 L 239.810118 12.888341 Z M 260.594244 35.004238 L 254.969638 35.004238 L 254.969638 12.888341 L 260.594244 12.888341 Z M 288.533097 35.004238 L 283.574376 35.004238 L 273.387746 21.389006 L 273.387746 35.004238 L 268.117333 35.004238 L 268.117333 12.888341 L 273.076054 12.888341 L 283.29102 26.531908 L 283.29102 12.888341 L 288.533097 12.888341 Z M 301.666625 35.004238 L 296.042018 35.004238 L 296.042018 12.888341 L 301.666625 12.888341 Z M 319.546357 12.689992 C 321.203987 12.689992 322.819113 13.030018 324.405904 13.695904 C 325.992695 14.375957 327.352801 15.282695 328.457888 16.416117 L 325.213467 20.269752 C 324.490911 19.39135 323.626676 18.682961 322.634932 18.172921 C 321.62902 17.662881 320.637276 17.407861 319.645532 17.407861 C 317.902895 17.407861 316.443614 18.017075 315.253521 19.249672 C 314.077596 20.482268 313.482549 21.99822 313.482549 23.811695 C 313.482549 25.667674 314.077596 27.211961 315.253521 28.458726 C 316.443614 29.70549 317.902895 30.328872 319.645532 30.328872 C 320.580605 30.328872 321.544014 30.08802 322.535758 29.634651 C 323.54167 29.167114 324.43424 28.529565 325.213467 27.736169 L 328.500391 31.207274 C 327.29613 32.425703 325.879353 33.417447 324.250059 34.154171 C 322.606597 34.890896 320.99147 35.259258 319.362176 35.259258 C 316.032749 35.259258 313.255865 34.168339 311.045692 32.000669 C 308.835519 29.833 307.730433 27.126955 307.730433 23.868367 C 307.730433 20.694785 308.863855 18.031243 311.116531 15.891909 C 313.369207 13.752575 316.188594 12.689992 319.546357 12.689992 Z M 319.546357 12.689992 " stroke="rgb(0%, 0%, 0%)" stroke-width="1.185274" stroke-opacity="1" stroke-miterlimit="4"/><g fill="rgb(45.098877%, 86.669922%, 89.408875%)" fill-opacity="1"><g transform="translate(35.091593, 24.531255)"><g><path d="M 2 -2.078125 L 1.21875 -2.078125 L 1.21875 0 L 0.8125 0 L 0.8125 -2.078125 L 0.03125 -2.078125 L 0.03125 -2.453125 L 2 -2.453125 Z M 2 -2.078125 "/></g></g></g><g fill="rgb(45.098877%, 86.669922%, 89.408875%)" fill-opacity="1"><g transform="translate(37.274343, 24.531255)"><g><path d="M 0.5 -2.09375 C 0.75 -2.332031 1.054688 -2.453125 1.421875 -2.453125 C 1.785156 -2.453125 2.09375 -2.332031 2.34375 -2.09375 C 2.59375 -1.863281 2.71875 -1.570312 2.71875 -1.21875 C 2.71875 -0.875 2.59375 -0.582031 2.34375 -0.34375 C 2.09375 -0.101562 1.785156 0.015625 1.421875 0.015625 C 1.054688 0.015625 0.75 -0.101562 0.5 -0.34375 C 0.25 -0.582031 0.125 -0.875 0.125 -1.21875 C 0.125 -1.570312 0.25 -1.863281 0.5 -2.09375 Z M 1.421875 -2.09375 C 1.179688 -2.09375 0.972656 -2.007812 0.796875 -1.84375 C 0.617188 -1.675781 0.53125 -1.46875 0.53125 -1.21875 C 0.53125 -0.976562 0.617188 -0.773438 0.796875 -0.609375 C 0.972656 -0.441406 1.179688 -0.359375 1.421875 -0.359375 C 1.660156 -0.359375 1.863281 -0.441406 2.03125 -0.609375 C 2.207031 -0.773438 2.296875 -0.976562 2.296875 -1.21875 C 2.296875 -1.46875 2.207031 -1.675781 2.03125 -1.84375 C 1.863281 -2.007812 1.660156 -2.09375 1.421875 -2.09375 Z M 1.421875 -2.09375 "/></g></g></g><g fill="rgb(45.098877%, 86.669922%, 89.408875%)" fill-opacity="1"><g transform="translate(40.263838, 24.531255)"><g><path d="M 0.5 -2.09375 C 0.75 -2.332031 1.054688 -2.453125 1.421875 -2.453125 C 1.785156 -2.453125 2.09375 -2.332031 2.34375 -2.09375 C 2.59375 -1.863281 2.71875 -1.570312 2.71875 -1.21875 C 2.71875 -0.875 2.59375 -0.582031 2.34375 -0.34375 C 2.09375 -0.101562 1.785156 0.015625 1.421875 0.015625 C 1.054688 0.015625 0.75 -0.101562 0.5 -0.34375 C 0.25 -0.582031 0.125 -0.875 0.125 -1.21875 C 0.125 -1.570312 0.25 -1.863281 0.5 -2.09375 Z M 1.421875 -2.09375 C 1.179688 -2.09375 0.972656 -2.007812 0.796875 -1.84375 C 0.617188 -1.675781 0.53125 -1.46875 0.53125 -1.21875 C 0.53125 -0.976562 0.617188 -0.773438 0.796875 -0.609375 C 0.972656 -0.441406 1.179688 -0.359375 1.421875 -0.359375 C 1.660156 -0.359375 1.863281 -0.441406 2.03125 -0.609375 C 2.207031 -0.773438 2.296875 -0.976562 2.296875 -1.21875 C 2.296875 -1.46875 2.207031 -1.675781 2.03125 -1.84375 C 1.863281 -2.007812 1.660156 -2.09375 1.421875 -2.09375 Z M 1.421875 -2.09375 "/></g></g></g><g fill="rgb(45.098877%, 86.669922%, 89.408875%)" fill-opacity="1"><g transform="translate(43.253334, 24.531255)"><g><path d="M 2 -2.078125 L 1.21875 -2.078125 L 1.21875 0 L 0.8125 0 L 0.8125 -2.078125 L 0.03125 -2.078125 L 0.03125 -2.453125 L 2 -2.453125 Z M 2 -2.078125 "/></g></g></g><g fill="rgb(45.098877%, 86.669922%, 89.408875%)" fill-opacity="1"><g transform="translate(45.436084, 24.531255)"><g><path d="M 2.453125 0 L 2.03125 0 L 2.03125 -1.015625 L 0.734375 -1.015625 L 0.734375 0 L 0.328125 0 L 0.328125 -2.453125 L 0.734375 -2.453125 L 0.734375 -1.390625 L 2.03125 -1.390625 L 2.03125 -2.453125 L 2.453125 -2.453125 Z M 2.453125 0 "/></g></g></g><g fill="rgb(45.098877%, 86.669922%, 89.408875%)" fill-opacity="1"><g transform="translate(48.359225, 24.531255)"><g/></g></g><g fill="rgb(45.098877%, 86.669922%, 89.408875%)" fill-opacity="1"><g transform="translate(49.420916, 24.531255)"><g><path d="M 1.875 0 L 1.421875 -0.734375 C 1.398438 -0.734375 1.363281 -0.734375 1.3125 -0.734375 L 0.734375 -0.734375 L 0.734375 0 L 0.328125 0 L 0.328125 -2.453125 L 1.3125 -2.453125 C 1.625 -2.453125 1.863281 -2.378906 2.03125 -2.234375 C 2.207031 -2.085938 2.296875 -1.878906 2.296875 -1.609375 C 2.296875 -1.410156 2.253906 -1.242188 2.171875 -1.109375 C 2.085938 -0.972656 1.960938 -0.875 1.796875 -0.8125 L 2.34375 0 Z M 0.734375 -1.109375 L 1.3125 -1.109375 C 1.707031 -1.109375 1.90625 -1.273438 1.90625 -1.609375 C 1.90625 -1.921875 1.707031 -2.078125 1.3125 -2.078125 L 0.734375 -2.078125 Z M 0.734375 -1.109375 "/></g></g></g><g fill="rgb(45.098877%, 86.669922%, 89.408875%)" fill-opacity="1"><g transform="translate(52.106573, 24.531255)"><g><path d="M 2.078125 -2.078125 L 0.734375 -2.078125 L 0.734375 -1.421875 L 1.9375 -1.421875 L 1.9375 -1.046875 L 0.734375 -1.046875 L 0.734375 -0.375 L 2.109375 -0.375 L 2.109375 0 L 0.328125 0 L 0.328125 -2.453125 L 2.078125 -2.453125 Z M 2.078125 -2.078125 "/></g></g></g><g fill="rgb(45.098877%, 86.669922%, 89.408875%)" fill-opacity="1"><g transform="translate(54.55824, 24.531255)"><g><path d="M 0.328125 -2.453125 L 1.296875 -2.453125 C 1.609375 -2.453125 1.847656 -2.378906 2.015625 -2.234375 C 2.179688 -2.085938 2.265625 -1.878906 2.265625 -1.609375 C 2.265625 -1.335938 2.179688 -1.125 2.015625 -0.96875 C 1.847656 -0.8125 1.609375 -0.734375 1.296875 -0.734375 L 0.734375 -0.734375 L 0.734375 0 L 0.328125 0 Z M 0.734375 -2.078125 L 0.734375 -1.109375 L 1.28125 -1.109375 C 1.675781 -1.109375 1.875 -1.273438 1.875 -1.609375 C 1.875 -1.921875 1.675781 -2.078125 1.28125 -2.078125 Z M 0.734375 -2.078125 "/></g></g></g><g fill="rgb(45.098877%, 86.669922%, 89.408875%)" fill-opacity="1"><g transform="translate(57.069276, 24.531255)"><g><path d="M 1.90625 -0.546875 L 0.671875 -0.546875 L 0.4375 0 L 0 0 L 1.078125 -2.453125 L 1.515625 -2.453125 L 2.578125 0 L 2.140625 0 Z M 1.75 -0.921875 L 1.28125 -2.015625 L 0.828125 -0.921875 Z M 1.75 -0.921875 "/></g></g></g><g fill="rgb(45.098877%, 86.669922%, 89.408875%)" fill-opacity="1"><g transform="translate(59.807321, 24.531255)"><g><path d="M 0.734375 0 L 0.328125 0 L 0.328125 -2.453125 L 0.734375 -2.453125 Z M 0.734375 0 "/></g></g></g><g fill="rgb(45.098877%, 86.669922%, 89.408875%)" fill-opacity="1"><g transform="translate(61.022677, 24.531255)"><g><path d="M 1.875 0 L 1.421875 -0.734375 C 1.398438 -0.734375 1.363281 -0.734375 1.3125 -0.734375 L 0.734375 -0.734375 L 0.734375 0 L 0.328125 0 L 0.328125 -2.453125 L 1.3125 -2.453125 C 1.625 -2.453125 1.863281 -2.378906 2.03125 -2.234375 C 2.207031 -2.085938 2.296875 -1.878906 2.296875 -1.609375 C 2.296875 -1.410156 2.253906 -1.242188 2.171875 -1.109375 C 2.085938 -0.972656 1.960938 -0.875 1.796875 -0.8125 L 2.34375 0 Z M 0.734375 -1.109375 L 1.3125 -1.109375 C 1.707031 -1.109375 1.90625 -1.273438 1.90625 -1.609375 C 1.90625 -1.921875 1.707031 -2.078125 1.3125 -2.078125 L 0.734375 -2.078125 Z M 0.734375 -1.109375 "/></g></g></g></svg>